<svg xmlns="http://www.w3.org/2000/svg" version="1.1" xmlns:xlink="http://www.w3.org/1999/xlink" xmlns:svgjs="http://svgjs.dev/svgjs" width="1440" height="657" preserveAspectRatio="none" viewBox="0 0 1440 657"><g mask="url(&quot;#SvgjsMask3993&quot;)" fill="none"><rect width="1440" height="657" x="0" y="0" fill="rgba(210, 177, 215, 1)"></rect><use xlink:href="#SvgjsG4006" transform="translate(0, 0)" fill="rgba(160, 78, 149, 1)"></use><use xlink:href="#SvgjsG4006" transform="translate(819, 0)" fill="rgba(160, 78, 149, 1)"></use></g><defs><mask id="SvgjsMask3993"><rect width="1440" height="657" fill="#ffffff"></rect></mask><g id="SvgjsG4005"><path d="M3.474 10.969C3.474 7.665 8.077 0.361 8.077 0.361s4.602 7.305 4.602 10.608c0 2.247-1.506 4.771-4.602 4.771-3.095 0-4.603-2.524-4.603-4.771z" fill-rule="evenodd"></path></g><g id="SvgjsG3994"><path d="M2.524 8.637H0.014V7.308h2.51v1.329zM3.656 4.576L1.884 2.804l0.935-0.935 1.772 1.772-0.935 0.935z m0 6.817l0.935 0.935-1.772 1.773-0.934-0.936 1.771-1.772z m4.997-8.884h-1.33V-0.002h1.33v2.511z m-1.33 10.952h1.33v2.51h-1.33v-2.509zM12.344 4.576l-0.96-0.935 1.796-1.772 0.935 0.935-1.772 1.772z m0 6.792l1.771 1.797-0.935 0.936-1.771-1.774 0.936-0.96z m3.643-4.06v1.329h-2.51V7.308h2.509z"></path><path d="M3.702 7.984a4.184 4.184 0 1 0 8.368 0 4.184 4.184 0 1 0-8.368 0"></path></g><g id="SvgjsG4000"><path d="M15.233 9.431c0.295 0 0.569-0.239 0.61-0.532 0 0 0.056-0.411 0.056-0.899s-0.056-0.899-0.056-0.899c-0.041-0.292-0.315-0.531-0.61-0.53h-1.524c-0.295 0-0.602-0.188-0.681-0.418s-0.188-0.967 0.021-1.176l1.078-1.077c0.209-0.209 0.225-0.565 0.036-0.792l-1.268-1.268c-0.227-0.189-0.583-0.173-0.792 0.036l-1.078 1.077c-0.208 0.209-0.556 0.293-0.772 0.187s-0.822-0.552-0.821-0.847V0.767c0-0.295-0.239-0.569-0.531-0.61 0 0-0.411-0.057-0.9-0.056s-0.899 0.057-0.899 0.056c-0.293 0.04-0.532 0.315-0.532 0.61v1.524c0 0.295-0.188 0.601-0.418 0.681s-0.967 0.188-1.176-0.021l-1.078-1.078C3.689 1.665 3.333 1.649 3.107 1.837l-1.268 1.268c-0.189 0.227-0.173 0.583 0.036 0.792l1.077 1.078c0.209 0.209 0.293 0.556 0.187 0.772s-0.552 0.822-0.847 0.822H0.767c-0.295 0-0.569 0.239-0.61 0.531 0 0-0.057 0.411-0.056 0.899s0.057 0.899 0.056 0.9c0.04 0.293 0.315 0.532 0.61 0.532h1.525c0.295 0 0.601 0.188 0.681 0.417 0.079 0.23 0.188 0.967-0.02 1.176l-1.078 1.077C1.667 12.311 1.651 12.667 1.84 12.893l1.267 1.268c0.227 0.189 0.583 0.173 0.792-0.036l1.077-1.077c0.209-0.208 0.556-0.292 0.772-0.187s0.821 0.553 0.822 0.848v1.524c0 0.295 0.239 0.569 0.532 0.61 0 0 0.411 0.057 0.899 0.057s0.899-0.056 0.899-0.057c0.293-0.04 0.531-0.315 0.532-0.609v-1.524c0-0.295 0.188-0.602 0.418-0.681 0.23-0.079 0.967-0.188 1.176 0.021l1.077 1.077c0.209 0.209 0.565 0.225 0.792 0.036l1.268-1.267c0.189-0.227 0.173-0.583-0.036-0.792l-1.078-1.077c-0.209-0.209-0.293-0.557-0.186-0.773 0.106-0.216 0.552-0.822 0.847-0.822h1.525zM8 10.892c-1.597 0-2.891-1.294-2.891-2.892 0-1.596 1.295-2.891 2.891-2.891S10.892 6.404 10.892 8 9.597 10.892 8 10.892z"></path></g><g id="SvgjsG4002"><path d="M8.312 8.242l0 0.521c0.492-0.069 0.443-0.509 0-0.52v-0.001z m-0.51-0.627V7.155c-0.365 0.064-0.358 0.454 0 0.46z"></path><path d="M8.055 5.946c-1.128 0-2.044 0.915-2.044 2.043 0 1.129 0.915 2.044 2.045 2.044 1.129 0 2.043-0.915 2.043-2.044 0-1.128-0.915-2.043-2.043-2.043l-0.001 0z m0.251 3.336v0.364h-0.507v-0.37c-0.29-0.043-0.822-0.323-0.855-0.924h0.534c0.034 0.154 0.078 0.34 0.321 0.409l-0.001-0.605c-0.334-0.048-0.814-0.194-0.814-0.73 0-0.602 0.666-0.789 0.813-0.789v-0.364h0.502v0.364c0.338 0.02 0.83 0.302 0.829 0.84h-0.528c-0.014-0.16-0.137-0.317-0.296-0.327v0.554c0.403 0.041 0.877 0.195 0.877 0.738 0 0.473-0.475 0.818-0.877 0.84h0.002z"></path><path d="M0 11.93h16V4H0v7.93z m1.508-1.508V5.508h12.984V10.422H1.508z"></path></g><g id="SvgjsG4004"><path d="M5.534 5.272L8.008 0l2.474 5.272 5.534 0.845-4.004 4.103 0.945 5.795L8.008 13.279 3.06 16.015l0.945-5.795L0.001 6.117z"></path></g><g id="SvgjsG3999"><path d="M15.98 13.856L11.694 9.568a6.304 6.304 0 1 0-5.388 3.04 6.26 6.26 0 0 0 3.26-0.914l4.29 4.292L15.98 13.856zM2.406 6.308a3.908 3.908 0 0 1 3.9-3.9 3.906 3.906 0 0 1 3.9 3.9 3.9 3.9 0 0 1-7.8 0z"></path></g><g id="SvgjsG3995"><path d="M4.246 7.191h2.928c1.218 0 1.428 0.799 1.579 0.955 0.453 0.439 0.759 0.702 1.402 0.702h3.245V1.657h-3.245c-0.643 0-0.95-0.263-1.403-0.712C8.601 0.809 8.392 0 7.174 0H2.702v15.659H4.246V7.191z" fill-rule="evenodd"></path></g><g id="SvgjsG3998"><path d="M14.159 8.927V5.732c0-0.453 0.371-0.822 0.828-0.822a0.822 0.822 0 0 1 0.821 0.822V10.107c0 0.605-0.218 1.189-0.608 1.646L12.472 14.65c-0.271 0.255-0.337 0.481-0.337 0.823V16h-2.97l-0.003-1.255c0-0.478-0.039-1.117 0.559-1.743l3.462-3.476a0.654 0.654 0 0 1 0.456-0.184 0.657 0.657 0 0 1 0.657 0.655c0 0.156-0.055 0.308-0.156 0.427l-1.67 1.789c-0.108 0.127-0.291 0.366-0.382 0.659-0.049 0.152-0.063 0.301-0.066 0.47h0.537c0.002-0.121 0.011-0.218 0.04-0.308 0.053-0.169 0.157-0.321 0.237-0.419l1.694-1.86c0.213-0.215 0.33-0.493 0.33-0.786 0-0.439-0.264-0.843-0.7-1.042z m-12.51 0V5.732c0-0.453-0.371-0.822-0.827-0.822A0.822 0.822 0 0 0 0 5.732V10.107c0 0.605 0.218 1.189 0.608 1.646l2.729 2.897c0.27 0.255 0.337 0.481 0.337 0.822V16h2.969l0.003-1.255c0-0.478 0.039-1.117-0.559-1.743L2.626 9.526a0.654 0.654 0 0 0-0.457-0.184 0.657 0.657 0 0 0-0.5 1.083l1.669 1.788c0.108 0.127 0.291 0.366 0.382 0.659 0.049 0.152 0.063 0.301 0.066 0.471h-0.537c-0.002-0.121-0.011-0.219-0.04-0.309-0.053-0.169-0.157-0.321-0.236-0.418L1.278 10.755c-0.213-0.215-0.33-0.493-0.33-0.786 0-0.439 0.264-0.843 0.701-1.042z m6.568-7.512a0.705 0.705 0 0 0 0-1.41 0.705 0.705 0 0 0 0 1.41z m-3.825 0.004c-0.395 0-0.715-0.317-0.715-0.71 0-0.392 0.32-0.709 0.715-0.709s0.716 0.317 0.716 0.709c0 0.393-0.321 0.71-0.716 0.71z"></path><path d="M11.225 3.646a0.494 0.494 0 1 0 0.988 0 0.494 0.494 0 1 0-0.988 0"></path><path d="M12.435 4.384h-1.334c-0.006 0-0.446-0.04-0.446-0.04l-0.559-1.947c-0.225-0.784-0.883-0.76-0.882-0.76h-1.808s-0.657-0.024-0.882 0.76l-0.276 0.959-0.275-0.959c-0.226-0.784-0.882-0.76-0.881-0.76H3.693s-0.658-0.024-0.883 0.76l-0.563 1.962c-0.053 0.184 0.047 0.323 0.208 0.369 0.16 0.046 0.324-0.035 0.365-0.181l0.549-1.913 0.267 0L2.835 5.946h0.708v2.352c0 0.194 0.156 0.352 0.35 0.351 0.194 0 0.352-0.158 0.352-0.351v-2.352h0.297v2.352c0 0.194 0.156 0.352 0.35 0.351a0.352 0.352 0 0 0 0.352-0.351v-2.352h0.696l-0.793-3.312 0.266 0.001 0.543 1.892c0.009 0.032 0.023 0.062 0.042 0.087 0.053 0.08 0.146 0.125 0.249 0.122 0.103 0.003 0.195-0.041 0.249-0.12 0.022-0.028 0.037-0.061 0.046-0.098l0.54-1.884 0.246 0v5.595a0.415 0.415 0 0 0 0.415 0.414 0.413 0.413 0 0 0 0.413-0.414V5.046h0.306v3.183a0.413 0.413 0 0 0 0.413 0.414 0.415 0.415 0 0 0 0.417-0.414v-5.595l0.267 0 0.525 1.913c0.028 0.094 0.107 0.156 0.202 0.18 0.004 0.001 0.006 0.003 0.009 0.004 0.083 0.019 0.469 0.128 0.753 0.209v3.47a0.291 0.291 0 0 0 0.581 0V6.676h0.228v1.734c0 0.16 0.13 0.29 0.29 0.29s0.292-0.13 0.292-0.29v-3.242h0.223v1.098c0 0.12 0.098 0.218 0.217 0.218 0.119 0 0.214-0.097 0.214-0.218v-1.249c0-0.35-0.308-0.634-0.658-0.634z"></path></g><g id="SvgjsG3996"><path d="M6.22 14.34L0.096 8.212l2.288-2.288 6.124 6.124z"></path><path d="M16.126 4.416L7.47 13.072l-2.44-2.44L13.686 1.976z"></path></g><g id="SvgjsG4003"><path d="M4.012 2.502a1.248 1.248 0 0 0 1.251-1.251C5.264 0.562 4.704 0.002 4.012 0c-0.69 0.002-1.25 0.562-1.251 1.251 0.001 0.693 0.561 1.252 1.251 1.251zM0.735 6.942h1.097l0.663-2.422h0.274L2.115 6.942h3.891l-0.702-2.422h0.291l0.371 1.187c0.173 0.501 0.616 0.616 0.96 0.186l1.34-1.623c0.424-0.547-0.337-1.123-0.775-0.646l-0.799 0.953c0.001 0.015-0.154-0.524-0.154-0.525-0.182-0.636-0.787-1.264-1.695-1.267H3.132c-0.811 0.003-1.447 0.709-1.582 1.154L0.735 6.942z"></path><path d="M8.993 3.64V1.146h-1.122v2.494z m3.786-1.122c0.693-0.002 1.253-0.563 1.251-1.251a1.246 1.246 0 0 0-1.251-1.251c-0.689-0.002-1.249 0.558-1.251 1.251 0.002 0.689 0.562 1.249 1.251 1.251z m1.583 11.811v-6.91h0.92V3.649c0.001-0.493-0.441-0.872-1.074-0.872H11.27c-0.584 0-0.726 0.19-0.888 0.347L7.935 6.062c-0.496 0.615 0.389 1.333 0.888 0.759L11.181 4.036v10.309c-0.003 1.036 1.45 1.07 1.453 0.032v-5.853h0.282v5.821c0.004 1.032 1.447 1.036 1.445-0.016z"></path><path d="M16 8.646v-1.421H0v1.421z"></path></g><g id="SvgjsG4001"><path d="M7.992 13.358C5.055 13.358 2.667 10.97 2.667 8.03 2.667 5.092 5.055 2.702 7.992 2.702s5.33 2.39 5.33 5.328c0 2.939-2.392 5.328-5.33 5.328z m0-1.318c2.21 0 4.011-1.798 4.012-4.011 0-2.209-1.802-4.01-4.012-4.01-2.211 0-4.008 1.801-4.007 4.01-0.001 2.213 1.797 4.011 4.007 4.011z" fill-rule="evenodd"></path><path d="M8.02 8.734a0.396 0.396 0 0 1-0.383-0.029 0.399 0.399 0 0 1-0.179-0.275L7.453 5.333a0.401 0.401 0 0 1 0.801 0v2.402l2.055-0.967a0.399 0.399 0 0 1 0.533 0.19c0.095 0.202 0.008 0.44-0.19 0.534l-2.631 1.242zM5.714 12.571h4.572v3.429H5.714zM5.714 0h4.572v3.429H5.714z" fill-rule="evenodd"></path></g><g id="SvgjsG3997"><path d="M7.713 15.485C3.459 15.485 0 12.025 0 7.768 0 3.513 3.459 0.051 7.713 0.051S15.432 3.513 15.432 7.768c0 4.257-3.465 7.716-7.719 7.717z m0-1.91c3.201 0 5.81-2.604 5.81-5.809 0-3.199-2.61-5.807-5.81-5.807-3.202 0-5.804 2.609-5.804 5.807-0.001 3.206 2.602 5.809 5.804 5.809z"></path><path d="M7.753 8.787a0.574 0.574 0 0 1-0.554-0.042 0.578 0.578 0 0 1-0.259-0.399L6.931 3.862a0.58 0.58 0 0 1 1.162 0v3.478l2.975-1.4a0.578 0.578 0 0 1 0.773 0.275c0.138 0.292 0.011 0.637-0.276 0.774l-3.81 1.798z"></path></g><g id="SvgjsG4006"><use xlink:href="#SvgjsG3994" transform="translate(0, 0) scale(2.1)" fill="rgba(181, 138, 91, 1)"></use><use xlink:href="#SvgjsG3995" transform="translate(0, 81.9) scale(2.1)" fill="rgba(181, 138, 91, 1)"></use><use xlink:href="#SvgjsG3996" transform="translate(0, 163.8) scale(2.1)" fill="rgba(160, 78, 149, 1)"></use><use xlink:href="#SvgjsG3997" transform="translate(0, 245.70000000000002) scale(2.1)" fill="rgba(181, 138, 91, 1)"></use><use xlink:href="#SvgjsG3998" transform="translate(0, 327.6) scale(2.1)" fill="rgba(181, 138, 91, 1)"></use><use xlink:href="#SvgjsG3999" transform="translate(0, 409.5) scale(2.1)" fill="rgba(181, 138, 91, 1)"></use><use xlink:href="#SvgjsG3999" transform="translate(0, 491.40000000000003) scale(2.1)" fill="rgba(160, 78, 149, 1)"></use><use xlink:href="#SvgjsG4000" transform="translate(0, 573.3000000000001) scale(2.1)" fill="rgba(160, 78, 149, 1)"></use><use xlink:href="#SvgjsG4000" transform="translate(0, 655.2) scale(2.1)" fill="rgba(160, 78, 149, 1)"></use><use xlink:href="#SvgjsG3997" transform="translate(81.9, 0) scale(2.1)" fill="rgba(181, 138, 91, 1)"></use><use xlink:href="#SvgjsG4001" transform="translate(81.9, 81.9) scale(2.1)" fill="rgba(181, 138, 91, 1)"></use><use xlink:href="#SvgjsG3996" transform="translate(81.9, 163.8) scale(2.1)" fill="rgba(160, 78, 149, 1)"></use><use xlink:href="#SvgjsG3997" transform="translate(81.9, 245.70000000000002) scale(2.1)" fill="rgba(160, 78, 149, 1)"></use><use xlink:href="#SvgjsG4002" transform="translate(81.9, 327.6) scale(2.1)" fill="rgba(181, 138, 91, 1)"></use><use xlink:href="#SvgjsG3997" transform="translate(81.9, 409.5) scale(2.1)" fill="rgba(181, 138, 91, 1)"></use><use xlink:href="#SvgjsG3997" transform="translate(81.9, 491.40000000000003) scale(2.1)" fill="rgba(181, 138, 91, 1)"></use><use xlink:href="#SvgjsG3996" transform="translate(81.9, 573.3000000000001) scale(2.1)" fill="rgba(160, 78, 149, 1)"></use><use xlink:href="#SvgjsG3996" transform="translate(81.9, 655.2) scale(2.1)" fill="rgba(181, 138, 91, 1)"></use><use xlink:href="#SvgjsG4003" transform="translate(163.8, 0) scale(2.1)" fill="rgba(181, 138, 91, 1)"></use><use xlink:href="#SvgjsG3997" transform="translate(163.8, 81.9) scale(2.1)" fill="rgba(181, 138, 91, 1)"></use><use xlink:href="#SvgjsG3996" transform="translate(163.8, 163.8) scale(2.1)" fill="rgba(160, 78, 149, 1)"></use><use xlink:href="#SvgjsG4004" transform="translate(163.8, 245.70000000000002) scale(2.1)" fill="rgba(160, 78, 149, 1)"></use><use xlink:href="#SvgjsG3998" transform="translate(163.8, 327.6) scale(2.1)" fill="rgba(160, 78, 149, 1)"></use><use xlink:href="#SvgjsG3995" transform="translate(163.8, 409.5) scale(2.1)" fill="rgba(181, 138, 91, 1)"></use><use xlink:href="#SvgjsG4004" transform="translate(163.8, 491.40000000000003) scale(2.1)" fill="rgba(160, 78, 149, 1)"></use><use xlink:href="#SvgjsG4002" transform="translate(163.8, 573.3000000000001) scale(2.1)" fill="rgba(181, 138, 91, 1)"></use><use xlink:href="#SvgjsG4005" transform="translate(163.8, 655.2) scale(2.1)" fill="rgba(160, 78, 149, 1)"></use><use xlink:href="#SvgjsG3999" transform="translate(245.70000000000002, 0) scale(2.1)" fill="rgba(160, 78, 149, 1)"></use><use xlink:href="#SvgjsG4005" transform="translate(245.70000000000002, 81.9) scale(2.1)" fill="rgba(181, 138, 91, 1)"></use><use xlink:href="#SvgjsG4001" transform="translate(245.70000000000002, 163.8) scale(2.1)" fill="rgba(160, 78, 149, 1)"></use><use xlink:href="#SvgjsG4004" transform="translate(245.70000000000002, 245.70000000000002) scale(2.1)" fill="rgba(181, 138, 91, 1)"></use><use xlink:href="#SvgjsG4003" transform="translate(245.70000000000002, 327.6) scale(2.1)" fill="rgba(160, 78, 149, 1)"></use><use xlink:href="#SvgjsG4002" transform="translate(245.70000000000002, 409.5) scale(2.1)" fill="rgba(160, 78, 149, 1)"></use><use xlink:href="#SvgjsG4000" transform="translate(245.70000000000002, 491.40000000000003) scale(2.1)" fill="rgba(181, 138, 91, 1)"></use><use xlink:href="#SvgjsG3996" transform="translate(245.70000000000002, 573.3000000000001) scale(2.1)" fill="rgba(181, 138, 91, 1)"></use><use xlink:href="#SvgjsG4000" transform="translate(245.70000000000002, 655.2) scale(2.1)" fill="rgba(181, 138, 91, 1)"></use><use xlink:href="#SvgjsG3994" transform="translate(327.6, 0) scale(2.1)" fill="rgba(181, 138, 91, 1)"></use><use xlink:href="#SvgjsG4000" transform="translate(327.6, 81.9) scale(2.1)" fill="rgba(181, 138, 91, 1)"></use><use xlink:href="#SvgjsG3997" transform="translate(327.6, 163.8) scale(2.1)" fill="rgba(160, 78, 149, 1)"></use><use xlink:href="#SvgjsG3999" transform="translate(327.6, 245.70000000000002) scale(2.1)" fill="rgba(181, 138, 91, 1)"></use><use xlink:href="#SvgjsG3994" transform="translate(327.6, 327.6) scale(2.1)" fill="rgba(160, 78, 149, 1)"></use><use xlink:href="#SvgjsG4005" transform="translate(327.6, 409.5) scale(2.1)" fill="rgba(181, 138, 91, 1)"></use><use xlink:href="#SvgjsG4005" transform="translate(327.6, 491.40000000000003) scale(2.1)" fill="rgba(160, 78, 149, 1)"></use><use xlink:href="#SvgjsG3996" transform="translate(327.6, 573.3000000000001) scale(2.1)" fill="rgba(181, 138, 91, 1)"></use><use xlink:href="#SvgjsG4002" transform="translate(327.6, 655.2) scale(2.1)" fill="rgba(160, 78, 149, 1)"></use><use xlink:href="#SvgjsG4005" transform="translate(409.5, 0) scale(2.1)" fill="rgba(160, 78, 149, 1)"></use><use xlink:href="#SvgjsG3994" transform="translate(409.5, 81.9) scale(2.1)" fill="rgba(160, 78, 149, 1)"></use><use xlink:href="#SvgjsG3996" transform="translate(409.5, 163.8) scale(2.1)" fill="rgba(160, 78, 149, 1)"></use><use xlink:href="#SvgjsG4005" transform="translate(409.5, 245.70000000000002) scale(2.1)" fill="rgba(181, 138, 91, 1)"></use><use xlink:href="#SvgjsG3995" transform="translate(409.5, 327.6) scale(2.1)" fill="rgba(181, 138, 91, 1)"></use><use xlink:href="#SvgjsG3998" transform="translate(409.5, 409.5) scale(2.1)" fill="rgba(160, 78, 149, 1)"></use><use xlink:href="#SvgjsG4005" transform="translate(409.5, 491.40000000000003) scale(2.1)" fill="rgba(160, 78, 149, 1)"></use><use xlink:href="#SvgjsG4005" transform="translate(409.5, 573.3000000000001) scale(2.1)" fill="rgba(160, 78, 149, 1)"></use><use xlink:href="#SvgjsG4003" transform="translate(409.5, 655.2) scale(2.1)" fill="rgba(181, 138, 91, 1)"></use><use xlink:href="#SvgjsG3998" transform="translate(491.40000000000003, 0) scale(2.1)" fill="rgba(160, 78, 149, 1)"></use><use xlink:href="#SvgjsG4003" transform="translate(491.40000000000003, 81.9) scale(2.1)" fill="rgba(160, 78, 149, 1)"></use><use xlink:href="#SvgjsG3997" transform="translate(491.40000000000003, 163.8) scale(2.1)" fill="rgba(160, 78, 149, 1)"></use><use xlink:href="#SvgjsG4001" transform="translate(491.40000000000003, 245.70000000000002) scale(2.1)" fill="rgba(181, 138, 91, 1)"></use><use xlink:href="#SvgjsG4002" transform="translate(491.40000000000003, 327.6) scale(2.1)" fill="rgba(160, 78, 149, 1)"></use><use xlink:href="#SvgjsG4001" transform="translate(491.40000000000003, 409.5) scale(2.1)" fill="rgba(181, 138, 91, 1)"></use><use xlink:href="#SvgjsG3997" transform="translate(491.40000000000003, 491.40000000000003) scale(2.1)" fill="rgba(160, 78, 149, 1)"></use><use xlink:href="#SvgjsG4004" transform="translate(491.40000000000003, 573.3000000000001) scale(2.1)" fill="rgba(160, 78, 149, 1)"></use><use xlink:href="#SvgjsG3996" transform="translate(491.40000000000003, 655.2) scale(2.1)" fill="rgba(181, 138, 91, 1)"></use><use xlink:href="#SvgjsG3999" transform="translate(573.3000000000001, 0) scale(2.1)" fill="rgba(160, 78, 149, 1)"></use><use xlink:href="#SvgjsG3998" transform="translate(573.3000000000001, 81.9) scale(2.1)" fill="rgba(160, 78, 149, 1)"></use><use xlink:href="#SvgjsG4004" transform="translate(573.3000000000001, 163.8) scale(2.1)" fill="rgba(160, 78, 149, 1)"></use><use xlink:href="#SvgjsG3999" transform="translate(573.3000000000001, 245.70000000000002) scale(2.1)" fill="rgba(160, 78, 149, 1)"></use><use xlink:href="#SvgjsG4003" transform="translate(573.3000000000001, 327.6) scale(2.1)" fill="rgba(181, 138, 91, 1)"></use><use xlink:href="#SvgjsG3995" transform="translate(573.3000000000001, 409.5) scale(2.1)" fill="rgba(181, 138, 91, 1)"></use><use xlink:href="#SvgjsG3997" transform="translate(573.3000000000001, 491.40000000000003) scale(2.1)" fill="rgba(181, 138, 91, 1)"></use><use xlink:href="#SvgjsG4003" transform="translate(573.3000000000001, 573.3000000000001) scale(2.1)" fill="rgba(181, 138, 91, 1)"></use><use xlink:href="#SvgjsG3997" transform="translate(573.3000000000001, 655.2) scale(2.1)" fill="rgba(160, 78, 149, 1)"></use><use xlink:href="#SvgjsG4003" transform="translate(655.2, 0) scale(2.1)" fill="rgba(160, 78, 149, 1)"></use><use xlink:href="#SvgjsG4003" transform="translate(655.2, 81.9) scale(2.1)" fill="rgba(181, 138, 91, 1)"></use><use xlink:href="#SvgjsG3998" transform="translate(655.2, 163.8) scale(2.1)" fill="rgba(160, 78, 149, 1)"></use><use xlink:href="#SvgjsG4005" transform="translate(655.2, 245.70000000000002) scale(2.1)" fill="rgba(160, 78, 149, 1)"></use><use xlink:href="#SvgjsG3999" transform="translate(655.2, 327.6) scale(2.1)" fill="rgba(181, 138, 91, 1)"></use><use xlink:href="#SvgjsG4003" transform="translate(655.2, 409.5) scale(2.1)" fill="rgba(160, 78, 149, 1)"></use><use xlink:href="#SvgjsG3996" transform="translate(655.2, 491.40000000000003) scale(2.1)" fill="rgba(181, 138, 91, 1)"></use><use xlink:href="#SvgjsG4004" transform="translate(655.2, 573.3000000000001) scale(2.1)" fill="rgba(181, 138, 91, 1)"></use><use xlink:href="#SvgjsG3996" transform="translate(655.2, 655.2) scale(2.1)" fill="rgba(160, 78, 149, 1)"></use><use xlink:href="#SvgjsG4004" transform="translate(737.1, 0) scale(2.1)" fill="rgba(160, 78, 149, 1)"></use><use xlink:href="#SvgjsG4001" transform="translate(737.1, 81.9) scale(2.1)" fill="rgba(181, 138, 91, 1)"></use><use xlink:href="#SvgjsG4005" transform="translate(737.1, 163.8) scale(2.1)" fill="rgba(181, 138, 91, 1)"></use><use xlink:href="#SvgjsG3999" transform="translate(737.1, 245.70000000000002) scale(2.1)" fill="rgba(160, 78, 149, 1)"></use><use xlink:href="#SvgjsG3995" transform="translate(737.1, 327.6) scale(2.1)" fill="rgba(160, 78, 149, 1)"></use><use xlink:href="#SvgjsG4001" transform="translate(737.1, 409.5) scale(2.1)" fill="rgba(160, 78, 149, 1)"></use><use xlink:href="#SvgjsG3997" transform="translate(737.1, 491.40000000000003) scale(2.1)" fill="rgba(160, 78, 149, 1)"></use><use xlink:href="#SvgjsG4004" transform="translate(737.1, 573.3000000000001) scale(2.1)" fill="rgba(181, 138, 91, 1)"></use><use xlink:href="#SvgjsG4003" transform="translate(737.1, 655.2) scale(2.1)" fill="rgba(181, 138, 91, 1)"></use></g></defs></svg>