<?xml version="1.0" standalone="no"?>
<!DOCTYPE svg PUBLIC "-//W3C//DTD SVG 20010904//EN"
 "http://www.w3.org/TR/2001/REC-SVG-20010904/DTD/svg10.dtd">
<svg version="1.0" xmlns="http://www.w3.org/2000/svg"
 width="500.000000pt" height="500.000000pt" viewBox="0 0 500.000000 500.000000"
 preserveAspectRatio="xMidYMid meet">

<g transform="translate(0.000000,500.000000) scale(0.100000,-0.100000)"
fill="#000000" stroke="none">
<path d="M980 2858 c-11 -27 -111 -391 -107 -393 3 -3 608 248 623 257 15 10
48 124 41 142 -6 14 -40 16 -277 16 l-270 0 -10 -22z"/>
<path d="M2274 2706 c-17 -7 -34 -21 -38 -31 -19 -50 7 -80 78 -94 58 -11 75
-25 60 -49 -16 -25 -59 -27 -83 -3 -24 24 -61 28 -61 7 0 -29 50 -56 102 -56
62 0 104 35 93 78 -10 41 -23 51 -76 58 -56 8 -78 26 -59 49 7 8 26 15 42 15
16 0 31 -6 34 -15 8 -20 54 -20 54 0 0 38 -94 65 -146 41z"/>
<path d="M3075 2713 c-58 -14 -96 -94 -75 -157 17 -53 52 -76 116 -76 58 0 96
24 109 68 5 18 2 22 -15 22 -12 0 -31 -11 -42 -25 -20 -25 -68 -34 -96 -17
-17 12 -29 61 -23 97 12 59 99 73 123 20 7 -16 19 -25 35 -25 27 0 29 10 8 50
-20 39 -81 57 -140 43z"/>
<path d="M3385 2713 c-34 -8 -55 -34 -55 -68 0 -38 15 -53 61 -61 77 -12 79
-14 79 -39 0 -18 -7 -26 -26 -31 -28 -7 -74 9 -74 26 0 5 -11 10 -25 10 -32 0
-32 -14 0 -45 20 -21 34 -25 80 -25 64 0 95 22 95 69 0 48 -22 61 -120 74 -9
1 -15 13 -15 27 0 21 5 26 31 28 19 2 36 -3 44 -12 12 -15 60 -23 60 -10 0 21
-26 45 -58 54 -39 10 -45 11 -77 3z"/>
<path d="M2050 2690 c0 -15 7 -20 25 -20 24 0 25 -2 25 -75 0 -73 -1 -75 -25
-75 -18 0 -25 -5 -25 -20 0 -18 7 -20 70 -20 63 0 70 2 70 20 0 15 -7 20 -25
20 -24 0 -25 2 -25 75 0 73 1 75 25 75 18 0 25 5 25 20 0 18 -7 20 -70 20 -63
0 -70 -2 -70 -20z"/>
<path d="M2535 2698 c-54 -149 -75 -210 -75 -213 0 -3 11 -5 25 -5 18 0 26 7
31 25 6 23 11 25 60 25 49 0 55 -3 64 -25 7 -17 17 -25 34 -25 l25 0 -40 110
c-21 61 -39 113 -39 115 0 11 -81 4 -85 -7z m68 -83 l16 -45 -40 0 c-21 0 -39
1 -39 3 0 18 34 96 40 92 4 -3 15 -25 23 -50z"/>
<path d="M2764 2595 l-41 -115 24 0 c16 0 27 8 33 25 9 22 15 25 65 25 50 0
55 -2 61 -25 4 -18 13 -25 30 -25 13 0 24 3 23 8 0 4 -17 54 -37 112 l-38 105
-40 3 -40 3 -40 -116z m110 -2 c7 -21 4 -23 -29 -23 -34 0 -37 2 -31 25 3 13
11 37 17 52 l11 28 13 -30 c7 -16 16 -40 19 -52z"/>
<path d="M3260 2670 c0 -29 4 -40 15 -40 8 0 15 8 15 18 0 9 3 27 6 40 5 18 2
22 -15 22 -18 0 -21 -6 -21 -40z"/>
<path d="M2124 2330 c-45 -14 -66 -43 -72 -98 -5 -54 15 -104 47 -122 33 -17
99 -12 121 10 l20 20 0 -20 c0 -13 7 -20 20 -20 18 0 20 7 20 60 l0 60 -65 0
c-50 0 -65 -3 -65 -14 0 -11 14 -16 48 -18 l47 -3 -27 -27 c-33 -35 -62 -35
-93 -3 -52 51 -23 145 45 145 17 0 39 -9 50 -20 25 -25 63 -27 58 -4 -8 43
-93 72 -154 54z"/>
<path d="M2403 2329 c-49 -14 -73 -52 -73 -115 0 -77 27 -106 106 -112 72 -5
108 18 124 79 27 100 -55 177 -157 148z m87 -47 c17 -14 23 -29 23 -58 0 -62
-17 -84 -63 -84 -51 0 -70 20 -70 76 0 74 58 108 110 66z"/>
<path d="M3670 2322 c-75 -37 -41 -122 50 -122 24 0 60 -21 60 -35 0 -2 -7
-11 -16 -19 -21 -22 -57 -20 -79 4 -21 23 -55 27 -55 5 0 -31 42 -55 95 -55
66 0 95 20 95 65 0 52 -20 65 -120 78 -9 1 -15 13 -15 27 0 21 5 26 31 28 19
2 38 -3 47 -12 15 -15 57 -22 57 -10 0 19 -24 43 -51 53 -43 15 -58 14 -99 -7z"/>
<path d="M2610 2215 l0 -115 80 0 c73 0 80 2 80 20 0 18 -7 20 -55 20 l-55 0
0 95 c0 95 0 95 -25 95 l-25 0 0 -115z"/>
<path d="M2800 2214 l0 -116 76 4 c71 3 78 6 105 36 22 24 29 42 29 72 0 87
-40 120 -145 120 l-65 0 0 -116z m142 59 c11 -10 18 -30 18 -55 0 -51 -27 -78
-80 -78 l-40 0 0 75 0 75 42 0 c24 0 49 -7 60 -17z"/>
<path d="M3050 2215 l0 -115 90 0 c83 0 90 1 90 20 0 18 -7 20 -65 20 l-65 0
0 30 0 30 60 0 c53 0 60 2 60 20 0 18 -7 20 -60 20 -57 0 -60 1 -60 25 0 24 2
25 65 25 58 0 65 2 65 20 0 19 -7 20 -90 20 l-90 0 0 -115z"/>
<path d="M3280 2216 c0 -109 1 -116 20 -116 19 0 20 7 21 98 l0 97 46 -97 46
-98 43 0 44 0 0 115 0 115 -25 0 c-24 0 -24 -1 -27 -96 l-3 -95 -40 93 -41 93
-42 3 -42 3 0 -115z"/>
<path d="M3894 2215 l-41 -115 24 0 c16 0 27 8 33 25 9 22 15 25 65 25 50 0
55 -2 61 -25 4 -18 13 -25 30 -25 13 0 24 3 23 8 0 4 -17 54 -37 112 l-38 105
-40 3 -40 3 -40 -116z m110 -2 c7 -21 4 -23 -33 -23 l-40 0 13 33 c7 17 17 41
21 52 7 18 8 17 20 -10 7 -16 16 -40 19 -52z"/>
<path d="M4130 2215 l0 -115 25 0 c23 0 25 3 25 50 l0 50 60 0 c47 0 60 3 60
15 0 12 -13 15 -60 15 l-60 0 0 30 0 30 65 0 c58 0 65 2 65 20 0 19 -7 20 -90
20 l-90 0 0 -115z"/>
<path d="M4350 2215 l0 -115 85 0 c78 0 85 2 85 20 0 18 -7 20 -65 20 l-65 0
0 30 0 30 60 0 c53 0 60 2 60 20 0 18 -7 20 -60 20 -57 0 -60 1 -60 25 0 24 2
25 65 25 58 0 65 2 65 20 0 18 -7 20 -85 20 l-85 0 0 -115z"/>
<path d="M2041 1928 c1 -55 5 -50 11 15 2 20 0 37 -4 37 -4 0 -7 -24 -7 -52z"/>
<path d="M2115 1969 c-4 -6 -4 -13 -1 -16 3 -4 7 0 7 8 1 8 5 -4 9 -26 l7 -40
2 43 c1 40 -10 55 -24 31z"/>
<path d="M2205 1969 c-4 -6 -5 -12 -2 -15 2 -3 7 2 10 11 7 17 1 20 -8 4z"/>
<path d="M2293 1930 c0 -30 2 -42 4 -27 4 28 5 29 26 10 l22 -18 -22 25 c-11
14 -23 34 -26 45 -3 11 -5 -5 -4 -35z"/>
<path d="M2451 1928 c1 -55 5 -50 11 15 2 20 0 37 -4 37 -4 0 -7 -24 -7 -52z"/>
<path d="M2508 1934 c-2 -25 0 -48 4 -50 5 -3 8 18 8 45 0 64 -7 66 -12 5z"/>
<path d="M2590 1976 c0 -2 11 -6 25 -8 13 -3 22 -1 19 3 -5 9 -44 13 -44 5z"/>
<path d="M2758 1973 c12 -2 32 -2 45 0 12 2 2 4 -23 4 -25 0 -35 -2 -22 -4z"/>
<path d="M2921 1964 c0 -11 3 -14 6 -6 3 7 2 16 -1 19 -3 4 -6 -2 -5 -13z"/>
<path d="M2970 1930 l0 -50 33 1 c30 2 30 2 5 6 -25 4 -28 8 -28 43 0 35 3 39
28 43 25 4 25 4 -5 6 l-33 1 0 -50z"/>
<path d="M3143 1973 c9 -2 25 -2 35 0 9 3 1 5 -18 5 -19 0 -27 -2 -17 -5z"/>
<path d="M3293 1945 c0 -22 2 -30 4 -17 2 12 2 30 0 40 -3 9 -5 -1 -4 -23z"/>
<path d="M3348 1973 c12 -2 32 -2 45 0 12 2 2 4 -23 4 -25 0 -35 -2 -22 -4z"/>
<path d="M3513 1945 c0 -22 2 -30 4 -17 2 12 2 30 0 40 -3 9 -5 -1 -4 -23z"/>
<path d="M3562 1928 l2 -53 3 49 c4 45 6 48 28 43 14 -2 22 0 19 4 -3 5 -16 9
-30 9 -23 0 -24 -3 -22 -52z"/>
<path d="M3683 1973 c9 -2 25 -2 35 0 9 3 1 5 -18 5 -19 0 -27 -2 -17 -5z"/>
<path d="M3373 1925 c0 -22 2 -30 4 -17 2 12 2 30 0 40 -3 9 -5 -1 -4 -23z"/>
<path d="M2560 1934 c0 -10 5 -26 10 -34 8 -11 9 -7 4 15 -8 37 -14 45 -14 19z"/>
<path d="M3605 1929 c-4 -6 -5 -12 -2 -15 2 -3 7 2 10 11 7 17 1 20 -8 4z"/>
<path d="M2626 1922 c7 -4 14 -16 17 -27 4 -15 5 -14 6 8 1 20 -4 27 -16 27
-12 0 -14 -3 -7 -8z"/>
<path d="M3265 1890 c-16 -7 -17 -9 -3 -9 9 -1 20 4 23 9 7 11 7 11 -20 0z"/>
<path d="M3485 1890 c-16 -7 -17 -9 -3 -9 9 -1 20 4 23 9 7 11 7 11 -20 0z"/>
<path d="M2598 1883 c7 -3 16 -2 19 1 4 3 -2 6 -13 5 -11 0 -14 -3 -6 -6z"/>
<path d="M3683 1883 c9 -2 25 -2 35 0 9 3 1 5 -18 5 -19 0 -27 -2 -17 -5z"/>
</g>
</svg>
